<svg xmlns="http://www.w3.org/2000/svg" viewBox="0 0 372.74 98.55"><defs><style>.cls-1,.cls-2{fill:#fff;}.cls-2{fill-rule:evenodd;}</style></defs><title>NDV_Logo</title><g id="Capa_2" data-name="Capa 2"><g id="Capa_1-2" data-name="Capa 1"><path class="cls-1" d="M133.83,9.78c-23-1.92-38.58-3.25-46.72-3.44l46.56-3.57a.84.84,0,0,0,0-1.67H62.51q-3.15-.12-6.08,0H54.25a.91.91,0,0,0-.48.15C36.71,2.53,25.36,9.39,18.38,15.73,6.16,26.84-.53,43.29,0,60.87A1.17,1.17,0,0,0,1.2,62h0a1.17,1.17,0,0,0,1.15-1.17,55.39,55.39,0,0,1,95.9-37.77,3.93,3.93,0,0,0,2.41,1.7.28.28,0,0,0,.13,0h13a.34.34,0,0,0,.34-.34v-1a.35.35,0,0,0-.34-.35l-13.64-3.06,18.56-1.61a.76.76,0,0,0,.76-.75v-.16a.76.76,0,0,0-.76-.76l-25-4c14.2-.18,25.28-1.32,40.05-1.32a.67.67,0,0,0,.67-.66v-.34a.67.67,0,0,0-.19-.47A.69.69,0,0,0,133.83,9.78Z"/><path class="cls-2" d="M83.27,84a35.09,35.09,0,0,1-47.58,4.74l-1.57-.08a1.32,1.32,0,0,1,.43-.81A35.18,35.18,0,0,1,70.68,28.28c2.18,0,4.25.07,6.22.2a37.89,37.89,0,1,0,10.25,55l.42-1.77A43.05,43.05,0,0,0,83.27,84Z"/><path class="cls-2" d="M70.24,69.4c6.84.22,12.07-3.19,13.6-8.43,2.07-7.13-1.3-12.31-8.59-12ZM44.85,84.74c3.89.27,8.59.05,12.57.05,8,0,16.14.25,23.8-2a34,34,0,0,0,4.7-1.74c1.41-.65,3.1-1.81,4.24-2.19l-1.4,5.87,37.9,0,4.09-11.31-2.62,11.29,31.85,0,5.66-15.64-17.76-.09c3.6-2.1,2.68,1,4.66-6.93q1.17-4.69,2.36-9.46c.77-3.14,1.54-6.31,2.36-9.51.63-2.44,2.11-7.31,2.27-9.57-3.15,0-20.51-.38-21.9.21.5,1.38,2.23.91,2,3.85-.1,1.49-6.46,26.29-7.62,31.11-.22.92-.2,1.74-.92,2.17H110.67c1-6.1,1.49-3.7-1.52-5.45l17.38-.14,4.28-12.84-15.56-.07c.21-1.73.82-2.56-.5-3.55s-2.24-.66-3.68-1.17c.05,0,.14-.14.16-.08l20.49-.19,4.75-13.82c-4.56,0-36.75-.42-38.11.18.61,1.94,3.43.54.94,8.13C92,33.67,84,33.58,72.37,33.59c-3.6,0-8.3-.26-11.77,0-1.89,6.53-5,19.76-6.67,26.8-1.09,4.55-2.21,8.91-3.32,13.43-.82,3.32-1.19,6.62-3.47,8.9C45.5,84.41,45.18,83.5,44.85,84.74Z"/><path class="cls-2" d="M228.31,65.73l6.63.06c1.3,0,1.68.16,2.24-.25l.57-15A23.79,23.79,0,0,0,236,54.75l-4,8.44c-1.25,2.49-1.65,1.52-3.64,2.54M173.73,33.5c.61,1.11.71.45,2.1,1.52,2.5,1.92,2.41,5.43,2.74,8.63,1.4,13.47,2.73,27.76,4.36,41.07l16.47.11c.85-.16,11.57-17.66,12.94-19.72,1.23-1.85,3.15-5.32,4.43-6.72-.42,1.39-5.77,11-6.88,13.09-1,1.87-6.67,11.9-6.78,13l18.34.38,3.41-6.89h12.28l.07,6.87h45.2l4-11-2.5,10.92,31.68,0c1-.5,2-4.39,2.41-5.61.72-2,1.49-4,2.17-5.77L317.46,84.8l35.54,0,4.74-13.9-18.23,0c.3-1.33,1.15-3,.83-4.23-.95-1.28-1.24-.61-2.3-1.25l17-.13c.91-.71,2.05-5,2.53-6.41s2.07-5.5,2.08-6.58H344.1c.31-2.39,1.41-3.54-2.86-4.46a4.87,4.87,0,0,1-.63-.15c-.8-.29-.39-.12-.75-.41h20.85l4.76-13.91c-4.84-.09-36.63-.46-38.45.14.44,1.29,2,1.2,2.07,3.41,0,1.79-4.73,19.91-5.49,23-.48,2-1.54,7.39-2.3,9L303.77,69c3.53-2,2.62,1.49,4.74-7,1-4,6.87-26.74,7-28.62l-22.07,0c.66,1.59,2,1.39,2.07,3.58.05,1.68-7.18,29.75-7.76,32.07l-17.54,0c1.36-.82,2.8-.42,3.48-2.16L279.67,43c.59-2.39,2.18-7.49,2.28-9.68-3.08,0-20.51-.38-21.92.21.31,1,.54.69,1.25,1.41,1.5,1.52.25,4.64-.27,6.77-.7,2.87-1.46,5.88-2.15,8.71-.74,3-3.55,15.79-4.5,17.41L252,33.34l-45.43-.05c1.08,3.29,4.35-.54-2.72,13.48-1.1,2.18-5.68,12-6.45,12.92-.42-8-1-16.18-1.2-24.12-.09-3.18-.32-2.28-3.81-2.28C189.11,33.29,174.81,33,173.73,33.5Z"/><path class="cls-2" d="M234.08,25.77l6.53.06c1.45-3.15,3-12.94,4.44-15.31l-1.51,15.31h4.65L255.14,10,251,25.79l6.61,0,7-25.24L255,.56c-1.68,1-3.58,9.22-5.24,11.1L250.9.58l-9.5,0c-.74.42-.42,0-.79,1.15Z"/><path class="cls-2" d="M338.72,21.45c2,.41,2.94-3,4.07-7.26.36-1.35,2.7-9.07,2.12-9.65-2.59-2.56-6.44,15.92-6.19,16.91M342.63.32c-7.6,1.6-7.87,6.39-9.95,14-.72,2.59-2.39,7.07-1,9.49s5.65,3,9.42,2.35c7.41-1.39,7.9-6.94,9.85-13.93.73-2.62,2.5-7.26.95-9.68S345.94-.38,342.63.32Z"/><path class="cls-2" d="M175.82,25.81l6.23,0a102,102,0,0,0,3.26-11.22l.91,11.22c8.26,0,6.36,1.45,8.38-6.12.56-2.13,1.15-4.15,1.76-6.37,1.12-4,2.63-8.68,3.46-12.76h-6.26l-3.05,10.78c-.72-1.28-1.14-8.74-1.34-10.78h-6.33Z"/><path class="cls-2" d="M237.22.61l-7.63,0c-.74,3.63-2.11,7.83-3.13,11.53q-.78,2.85-1.58,5.74c-.48,1.79-.87,5-2.91,4C221.43,20.11,226.76,4,227.34.58h-7.62c-1.07,5.07-2.91,10.69-4.26,15.66-.67,2.46-2,5.79-.42,7.87,2.24,2.89,10.85,3.46,14.84-.75,1.89-2,2.15-3.78,3-6.91Z"/><path class="cls-2" d="M272.92,16.64l1.77-10.3-4.24,10.3Zm-13.11,9.19h7.73l1.78-4.48,2.71-.07-.78,4.56c2.13,0,5.92.28,7.79-.15l2.59-25L270.94.55c-.9.23-2.59,5.18-2.95,6-1,2.17-1.83,4.28-2.75,6.4C264.22,15.3,260.28,24.12,259.81,25.83Z"/><path class="cls-2" d="M329,15.75h-7.59c-.4,1.71-1,5.74-2.44,6.25-3.15,1.13-.87-4.32-.49-5.75.61-2.35,1.3-4.65,1.93-7,.34-1.27,1.41-6.79,3.53-4.59.58.68-.11,2.4-.36,3.31a25.82,25.82,0,0,0-.9,3.59h7.55c.67-2.55,2.36-7,.74-9.23-1.45-2-5.59-2.64-9-2.15-7.85,1.12-8.59,6.55-10.11,12.32-1.84,7-5.21,13.59,4.86,13.87,7.4.22,11.34-4,12.27-10.62"/><path class="cls-2" d="M359.13,22c-.59-1.38.54-3.46.75-5.15h-6.59c-.62.17-4.56,8,3.2,9.37,4.76.83,10-.77,11.67-3.62a15.39,15.39,0,0,0,1.8-5.76c.45-5.25-5.87-6.34-7.13-8.19-1.65-2.44,2.52-6.29,2.66-3.3l-.61,2.84,7,0c2-5.45.85-7.67-5-8.12-4.94-.39-9,1.17-10.58,4.37A12,12,0,0,0,355,10.2c.31,2.3,1.78,3,3.27,4,2.74,1.91,5.32,2.78,3.44,6.6-.5,1-1.13,1.44-2.57,1.14"/><path class="cls-2" d="M196.72,25.82h13.34l1.3-5-5.54,0c.11-.79,1.13-5.38,1.85-5.59h4.38l1.3-4.72-4.67-.06,1.25-4.77,5.15,0,1.34-5-12.79,0Z"/><path class="cls-2" d="M283.36,5.6h4.41l-5.5,20.22c7.36,0,7.34.66,7.94-1,1.24-3.4,4-16.16,5.3-19.15l4.55-.11,1.34-5H285.06c-.76.5-.75,1.31-1,2.22s-.53,1.78-.71,2.82"/><path class="cls-2" d="M296.93,25.82c9.21,0,7.4.79,8.41-2.8.34-1.17.6-2.16.91-3.29.6-2.12,1.17-4.26,1.75-6.35L311.47.56h-7.64Z"/></g></g></svg>